<mxfile host="app.diagrams.net" modified="2024-02-19T15:35:31.138Z" agent="Mozilla/5.0 (Macintosh; Intel Mac OS X 10.15; rv:122.0) Gecko/20100101 Firefox/122.0" etag="_jnwyYKocRr9eiZxiYJx" version="23.1.4" type="device">
  <diagram name="Page-1" id="I-d5jXMrSitAM2O5OOul">
    <mxGraphModel dx="914" dy="506" grid="1" gridSize="10" guides="1" tooltips="1" connect="1" arrows="1" fold="1" page="1" pageScale="1" pageWidth="827" pageHeight="1169" math="0" shadow="0">
      <root>
        <mxCell id="0" />
        <mxCell id="1" parent="0" />
        <mxCell id="8YC0cul7a0eEX28xoJqK-1" value="users" style="swimlane;whiteSpace=wrap;html=1;" vertex="1" parent="1">
          <mxGeometry x="80" y="40" width="200" height="200" as="geometry" />
        </mxCell>
        <mxCell id="8YC0cul7a0eEX28xoJqK-6" value="password" style="text;html=1;align=center;verticalAlign=middle;resizable=0;points=[];autosize=1;strokeColor=none;fillColor=none;" vertex="1" parent="8YC0cul7a0eEX28xoJqK-1">
          <mxGeometry x="30" y="110" width="70" height="30" as="geometry" />
        </mxCell>
        <mxCell id="8YC0cul7a0eEX28xoJqK-7" value="login" style="text;html=1;align=center;verticalAlign=middle;resizable=0;points=[];autosize=1;strokeColor=none;fillColor=none;" vertex="1" parent="8YC0cul7a0eEX28xoJqK-1">
          <mxGeometry x="30" y="70" width="50" height="30" as="geometry" />
        </mxCell>
        <mxCell id="8YC0cul7a0eEX28xoJqK-5" value="nickname" style="text;html=1;align=center;verticalAlign=middle;resizable=0;points=[];autosize=1;strokeColor=none;fillColor=none;" vertex="1" parent="8YC0cul7a0eEX28xoJqK-1">
          <mxGeometry x="30" y="150" width="70" height="30" as="geometry" />
        </mxCell>
        <mxCell id="8YC0cul7a0eEX28xoJqK-4" value="id" style="text;html=1;align=center;verticalAlign=middle;resizable=0;points=[];autosize=1;strokeColor=none;fillColor=none;" vertex="1" parent="8YC0cul7a0eEX28xoJqK-1">
          <mxGeometry x="30" y="30" width="30" height="30" as="geometry" />
        </mxCell>
        <mxCell id="8YC0cul7a0eEX28xoJqK-25" style="edgeStyle=orthogonalEdgeStyle;rounded=0;orthogonalLoop=1;jettySize=auto;html=1;exitX=1;exitY=0.5;exitDx=0;exitDy=0;entryX=0;entryY=0.5;entryDx=0;entryDy=0;endArrow=none;endFill=0;" edge="1" parent="1" source="8YC0cul7a0eEX28xoJqK-2" target="8YC0cul7a0eEX28xoJqK-22">
          <mxGeometry relative="1" as="geometry" />
        </mxCell>
        <mxCell id="8YC0cul7a0eEX28xoJqK-30" value="0,n" style="edgeLabel;html=1;align=center;verticalAlign=middle;resizable=0;points=[];" vertex="1" connectable="0" parent="8YC0cul7a0eEX28xoJqK-25">
          <mxGeometry x="-0.2" relative="1" as="geometry">
            <mxPoint as="offset" />
          </mxGeometry>
        </mxCell>
        <mxCell id="8YC0cul7a0eEX28xoJqK-2" value="articles" style="swimlane;whiteSpace=wrap;html=1;startSize=23;" vertex="1" parent="1">
          <mxGeometry x="80" y="360" width="200" height="200" as="geometry" />
        </mxCell>
        <mxCell id="8YC0cul7a0eEX28xoJqK-9" value="id" style="text;html=1;align=center;verticalAlign=middle;resizable=0;points=[];autosize=1;strokeColor=none;fillColor=none;" vertex="1" parent="8YC0cul7a0eEX28xoJqK-2">
          <mxGeometry x="30" y="30" width="30" height="30" as="geometry" />
        </mxCell>
        <mxCell id="8YC0cul7a0eEX28xoJqK-10" value="id_user" style="text;html=1;align=center;verticalAlign=middle;resizable=0;points=[];autosize=1;strokeColor=none;fillColor=none;" vertex="1" parent="8YC0cul7a0eEX28xoJqK-2">
          <mxGeometry x="30" y="50" width="60" height="30" as="geometry" />
        </mxCell>
        <mxCell id="8YC0cul7a0eEX28xoJqK-11" value="title" style="text;html=1;align=center;verticalAlign=middle;resizable=0;points=[];autosize=1;strokeColor=none;fillColor=none;" vertex="1" parent="8YC0cul7a0eEX28xoJqK-2">
          <mxGeometry x="30" y="70" width="40" height="30" as="geometry" />
        </mxCell>
        <mxCell id="8YC0cul7a0eEX28xoJqK-12" value="content" style="text;html=1;align=center;verticalAlign=middle;resizable=0;points=[];autosize=1;strokeColor=none;fillColor=none;" vertex="1" parent="8YC0cul7a0eEX28xoJqK-2">
          <mxGeometry x="30" y="90" width="60" height="30" as="geometry" />
        </mxCell>
        <mxCell id="8YC0cul7a0eEX28xoJqK-13" value="date_creation" style="text;html=1;align=center;verticalAlign=middle;resizable=0;points=[];autosize=1;strokeColor=none;fillColor=none;" vertex="1" parent="8YC0cul7a0eEX28xoJqK-2">
          <mxGeometry x="25" y="110" width="100" height="30" as="geometry" />
        </mxCell>
        <mxCell id="8YC0cul7a0eEX28xoJqK-14" value="date_update" style="text;html=1;align=center;verticalAlign=middle;resizable=0;points=[];autosize=1;strokeColor=none;fillColor=none;" vertex="1" parent="8YC0cul7a0eEX28xoJqK-2">
          <mxGeometry x="30" y="130" width="90" height="30" as="geometry" />
        </mxCell>
        <mxCell id="8YC0cul7a0eEX28xoJqK-3" value="comments" style="swimlane;whiteSpace=wrap;html=1;" vertex="1" parent="1">
          <mxGeometry x="440" y="360" width="200" height="200" as="geometry" />
        </mxCell>
        <mxCell id="8YC0cul7a0eEX28xoJqK-15" value="id" style="text;html=1;align=center;verticalAlign=middle;resizable=0;points=[];autosize=1;strokeColor=none;fillColor=none;" vertex="1" parent="8YC0cul7a0eEX28xoJqK-3">
          <mxGeometry x="30" y="30" width="30" height="30" as="geometry" />
        </mxCell>
        <mxCell id="8YC0cul7a0eEX28xoJqK-16" value="id_article" style="text;html=1;align=center;verticalAlign=middle;resizable=0;points=[];autosize=1;strokeColor=none;fillColor=none;" vertex="1" parent="8YC0cul7a0eEX28xoJqK-3">
          <mxGeometry x="30" y="50" width="70" height="30" as="geometry" />
        </mxCell>
        <mxCell id="8YC0cul7a0eEX28xoJqK-17" value="pseudo" style="text;html=1;align=center;verticalAlign=middle;resizable=0;points=[];autosize=1;strokeColor=none;fillColor=none;" vertex="1" parent="8YC0cul7a0eEX28xoJqK-3">
          <mxGeometry x="30" y="70" width="60" height="30" as="geometry" />
        </mxCell>
        <mxCell id="8YC0cul7a0eEX28xoJqK-18" value="content" style="text;html=1;align=center;verticalAlign=middle;resizable=0;points=[];autosize=1;strokeColor=none;fillColor=none;" vertex="1" parent="8YC0cul7a0eEX28xoJqK-3">
          <mxGeometry x="30" y="90" width="60" height="30" as="geometry" />
        </mxCell>
        <mxCell id="8YC0cul7a0eEX28xoJqK-19" value="date_creation" style="text;html=1;align=center;verticalAlign=middle;resizable=0;points=[];autosize=1;strokeColor=none;fillColor=none;" vertex="1" parent="8YC0cul7a0eEX28xoJqK-3">
          <mxGeometry x="30" y="110" width="100" height="30" as="geometry" />
        </mxCell>
        <mxCell id="8YC0cul7a0eEX28xoJqK-24" value="1,1" style="edgeStyle=orthogonalEdgeStyle;rounded=0;orthogonalLoop=1;jettySize=auto;html=1;exitX=0.5;exitY=1;exitDx=0;exitDy=0;entryX=0.5;entryY=0;entryDx=0;entryDy=0;endArrow=none;endFill=0;" edge="1" parent="1" source="8YC0cul7a0eEX28xoJqK-20" target="8YC0cul7a0eEX28xoJqK-2">
          <mxGeometry relative="1" as="geometry" />
        </mxCell>
        <mxCell id="8YC0cul7a0eEX28xoJqK-20" value="créés par" style="swimlane;whiteSpace=wrap;html=1;rounded=1;" vertex="1" parent="1">
          <mxGeometry x="80" y="270" width="200" height="50" as="geometry" />
        </mxCell>
        <mxCell id="8YC0cul7a0eEX28xoJqK-26" style="edgeStyle=orthogonalEdgeStyle;rounded=0;orthogonalLoop=1;jettySize=auto;html=1;exitX=1;exitY=0.5;exitDx=0;exitDy=0;entryX=0;entryY=0.5;entryDx=0;entryDy=0;endArrow=none;endFill=0;" edge="1" parent="1" source="8YC0cul7a0eEX28xoJqK-22" target="8YC0cul7a0eEX28xoJqK-3">
          <mxGeometry relative="1" as="geometry" />
        </mxCell>
        <mxCell id="8YC0cul7a0eEX28xoJqK-31" value="1,1" style="edgeLabel;html=1;align=center;verticalAlign=middle;resizable=0;points=[];" vertex="1" connectable="0" parent="8YC0cul7a0eEX28xoJqK-26">
          <mxGeometry x="-0.1" y="-2" relative="1" as="geometry">
            <mxPoint as="offset" />
          </mxGeometry>
        </mxCell>
        <mxCell id="8YC0cul7a0eEX28xoJqK-22" value="contient" style="swimlane;whiteSpace=wrap;html=1;rounded=1;" vertex="1" parent="1">
          <mxGeometry x="320" y="435" width="80" height="50" as="geometry" />
        </mxCell>
        <mxCell id="8YC0cul7a0eEX28xoJqK-23" style="edgeStyle=orthogonalEdgeStyle;rounded=0;orthogonalLoop=1;jettySize=auto;html=1;exitX=0.5;exitY=1;exitDx=0;exitDy=0;endArrow=none;endFill=0;" edge="1" parent="1" source="8YC0cul7a0eEX28xoJqK-1">
          <mxGeometry relative="1" as="geometry">
            <mxPoint x="180" y="270" as="targetPoint" />
          </mxGeometry>
        </mxCell>
        <mxCell id="8YC0cul7a0eEX28xoJqK-29" value="0,n" style="edgeLabel;html=1;align=center;verticalAlign=middle;resizable=0;points=[];" vertex="1" connectable="0" parent="8YC0cul7a0eEX28xoJqK-23">
          <mxGeometry y="4" relative="1" as="geometry">
            <mxPoint as="offset" />
          </mxGeometry>
        </mxCell>
        <mxCell id="8YC0cul7a0eEX28xoJqK-32" value="users" style="swimlane;whiteSpace=wrap;html=1;" vertex="1" parent="1">
          <mxGeometry x="880" y="40" width="200" height="200" as="geometry" />
        </mxCell>
        <mxCell id="8YC0cul7a0eEX28xoJqK-33" value="password" style="text;html=1;align=center;verticalAlign=middle;resizable=0;points=[];autosize=1;strokeColor=none;fillColor=none;" vertex="1" parent="8YC0cul7a0eEX28xoJqK-32">
          <mxGeometry x="30" y="110" width="70" height="30" as="geometry" />
        </mxCell>
        <mxCell id="8YC0cul7a0eEX28xoJqK-34" value="login" style="text;html=1;align=center;verticalAlign=middle;resizable=0;points=[];autosize=1;strokeColor=none;fillColor=none;" vertex="1" parent="8YC0cul7a0eEX28xoJqK-32">
          <mxGeometry x="30" y="70" width="50" height="30" as="geometry" />
        </mxCell>
        <mxCell id="8YC0cul7a0eEX28xoJqK-35" value="nickname" style="text;html=1;align=center;verticalAlign=middle;resizable=0;points=[];autosize=1;strokeColor=none;fillColor=none;" vertex="1" parent="8YC0cul7a0eEX28xoJqK-32">
          <mxGeometry x="30" y="150" width="70" height="30" as="geometry" />
        </mxCell>
        <mxCell id="8YC0cul7a0eEX28xoJqK-36" value="id" style="text;html=1;align=center;verticalAlign=middle;resizable=0;points=[];autosize=1;strokeColor=none;fillColor=none;" vertex="1" parent="8YC0cul7a0eEX28xoJqK-32">
          <mxGeometry x="30" y="30" width="30" height="30" as="geometry" />
        </mxCell>
        <mxCell id="8YC0cul7a0eEX28xoJqK-37" value="articles" style="swimlane;whiteSpace=wrap;html=1;startSize=23;" vertex="1" parent="1">
          <mxGeometry x="880" y="360" width="200" height="200" as="geometry" />
        </mxCell>
        <mxCell id="8YC0cul7a0eEX28xoJqK-38" value="id" style="text;html=1;align=center;verticalAlign=middle;resizable=0;points=[];autosize=1;strokeColor=none;fillColor=none;" vertex="1" parent="8YC0cul7a0eEX28xoJqK-37">
          <mxGeometry x="30" y="30" width="30" height="30" as="geometry" />
        </mxCell>
        <mxCell id="8YC0cul7a0eEX28xoJqK-39" value="id_user" style="text;html=1;align=center;verticalAlign=middle;resizable=0;points=[];autosize=1;strokeColor=none;fillColor=none;" vertex="1" parent="8YC0cul7a0eEX28xoJqK-37">
          <mxGeometry x="30" y="50" width="60" height="30" as="geometry" />
        </mxCell>
        <mxCell id="8YC0cul7a0eEX28xoJqK-40" value="title" style="text;html=1;align=center;verticalAlign=middle;resizable=0;points=[];autosize=1;strokeColor=none;fillColor=none;" vertex="1" parent="8YC0cul7a0eEX28xoJqK-37">
          <mxGeometry x="30" y="70" width="40" height="30" as="geometry" />
        </mxCell>
        <mxCell id="8YC0cul7a0eEX28xoJqK-41" value="content" style="text;html=1;align=center;verticalAlign=middle;resizable=0;points=[];autosize=1;strokeColor=none;fillColor=none;" vertex="1" parent="8YC0cul7a0eEX28xoJqK-37">
          <mxGeometry x="30" y="90" width="60" height="30" as="geometry" />
        </mxCell>
        <mxCell id="8YC0cul7a0eEX28xoJqK-42" value="date_creation" style="text;html=1;align=center;verticalAlign=middle;resizable=0;points=[];autosize=1;strokeColor=none;fillColor=none;" vertex="1" parent="8YC0cul7a0eEX28xoJqK-37">
          <mxGeometry x="25" y="110" width="100" height="30" as="geometry" />
        </mxCell>
        <mxCell id="8YC0cul7a0eEX28xoJqK-43" value="date_update" style="text;html=1;align=center;verticalAlign=middle;resizable=0;points=[];autosize=1;strokeColor=none;fillColor=none;" vertex="1" parent="8YC0cul7a0eEX28xoJqK-37">
          <mxGeometry x="30" y="130" width="90" height="30" as="geometry" />
        </mxCell>
        <mxCell id="8YC0cul7a0eEX28xoJqK-44" value="comments" style="swimlane;whiteSpace=wrap;html=1;" vertex="1" parent="1">
          <mxGeometry x="1241" y="360" width="200" height="200" as="geometry" />
        </mxCell>
        <mxCell id="8YC0cul7a0eEX28xoJqK-45" value="id" style="text;html=1;align=center;verticalAlign=middle;resizable=0;points=[];autosize=1;strokeColor=none;fillColor=none;" vertex="1" parent="8YC0cul7a0eEX28xoJqK-44">
          <mxGeometry x="30" y="30" width="30" height="30" as="geometry" />
        </mxCell>
        <mxCell id="8YC0cul7a0eEX28xoJqK-46" value="id_article" style="text;html=1;align=center;verticalAlign=middle;resizable=0;points=[];autosize=1;strokeColor=none;fillColor=none;" vertex="1" parent="8YC0cul7a0eEX28xoJqK-44">
          <mxGeometry x="30" y="50" width="70" height="30" as="geometry" />
        </mxCell>
        <mxCell id="8YC0cul7a0eEX28xoJqK-47" value="pseudo" style="text;html=1;align=center;verticalAlign=middle;resizable=0;points=[];autosize=1;strokeColor=none;fillColor=none;" vertex="1" parent="8YC0cul7a0eEX28xoJqK-44">
          <mxGeometry x="30" y="70" width="60" height="30" as="geometry" />
        </mxCell>
        <mxCell id="8YC0cul7a0eEX28xoJqK-48" value="content" style="text;html=1;align=center;verticalAlign=middle;resizable=0;points=[];autosize=1;strokeColor=none;fillColor=none;" vertex="1" parent="8YC0cul7a0eEX28xoJqK-44">
          <mxGeometry x="30" y="90" width="60" height="30" as="geometry" />
        </mxCell>
        <mxCell id="8YC0cul7a0eEX28xoJqK-49" value="date_creation" style="text;html=1;align=center;verticalAlign=middle;resizable=0;points=[];autosize=1;strokeColor=none;fillColor=none;" vertex="1" parent="8YC0cul7a0eEX28xoJqK-44">
          <mxGeometry x="30" y="110" width="100" height="30" as="geometry" />
        </mxCell>
        <mxCell id="8YC0cul7a0eEX28xoJqK-50" style="edgeStyle=orthogonalEdgeStyle;rounded=0;orthogonalLoop=1;jettySize=auto;html=1;endArrow=none;endFill=0;" edge="1" parent="1" source="8YC0cul7a0eEX28xoJqK-36" target="8YC0cul7a0eEX28xoJqK-39">
          <mxGeometry relative="1" as="geometry">
            <Array as="points">
              <mxPoint x="830" y="85" />
              <mxPoint x="830" y="425" />
            </Array>
          </mxGeometry>
        </mxCell>
        <mxCell id="8YC0cul7a0eEX28xoJqK-51" style="edgeStyle=orthogonalEdgeStyle;rounded=0;orthogonalLoop=1;jettySize=auto;html=1;endArrow=none;endFill=0;" edge="1" parent="1" source="8YC0cul7a0eEX28xoJqK-38" target="8YC0cul7a0eEX28xoJqK-46">
          <mxGeometry relative="1" as="geometry" />
        </mxCell>
      </root>
    </mxGraphModel>
  </diagram>
</mxfile>
